<svg t="1640432258476" class="icon" viewBox="0 0 1024 1024" version="1.1" xmlns="http://www.w3.org/2000/svg" p-id="5966" width="200" height="200"><path d="M704 672a32 32 0 0 1-32-32v-256a32 32 0 0 1 64 0v256a32 32 0 0 1-32 32z m96-64a32 32 0 0 1-32-32v-128a32 32 0 0 1 64 0v128a32 32 0 0 1-32 32z m-480 96a32 32 0 0 1-32-32V352a32 32 0 1 1 64 0v320a32 32 0 0 1-32 32z m96 128a32 32 0 0 1-32-32V224a32 32 0 1 1 64 0v576a32 32 0 0 1-32 32z m96-128a32 32 0 0 1-32-32V352a32 32 0 1 1 64 0v320a32 32 0 0 1-32 32z m96-96a32 32 0 0 1-32-32v-128a32 32 0 0 1 64 0v128a32 32 0 0 1-32 32zM224 608a32 32 0 0 1-32-32v-128a32 32 0 1 1 64 0v128a32 32 0 0 1-32 32z" p-id="5967"></path></svg>